<svg xmlns="http://www.w3.org/2000/svg" width="20" height="20" viewBox="0 0 20 20">
  <path id="search_FILL0_wght500_GRAD0_opsz48" d="M24.334,25.75l-7.24-7.223a5.771,5.771,0,0,1-1.885,1.067,6.971,6.971,0,0,1-2.322.383A6.952,6.952,0,0,1,7.79,17.9,6.839,6.839,0,0,1,5.7,12.864,6.839,6.839,0,0,1,7.79,7.829,6.888,6.888,0,0,1,12.831,5.75a6.843,6.843,0,0,1,5.027,2.079,6.862,6.862,0,0,1,2.077,5.034,6.833,6.833,0,0,1-.383,2.271,7.289,7.289,0,0,1-1.12,2.052l7.268,7.2ZM12.858,18.117a4.957,4.957,0,0,0,3.675-1.546,5.106,5.106,0,0,0,1.516-3.707,5.106,5.106,0,0,0-1.516-3.707A4.957,4.957,0,0,0,12.858,7.61a5.251,5.251,0,0,0-5.273,5.253,5.251,5.251,0,0,0,5.273,5.253Z" transform="translate(-5.7 -5.75)" fill="#fff"/>
</svg>
