<svg xmlns="http://www.w3.org/2000/svg" width="32" height="32" viewBox="0 0 32 32">
  <path id="account_circle_FILL0_wght500_GRAD0_opsz48" d="M9.572,28.449a23.85,23.85,0,0,1,4.906-2.621A14.506,14.506,0,0,1,19.7,24.9a14.825,14.825,0,0,1,5.261.926,22.579,22.579,0,0,1,4.906,2.621,13.627,13.627,0,0,0,2.443-4.256A14.113,14.113,0,0,0,33.02,19.7,13.06,13.06,0,0,0,19.7,6.38,13.06,13.06,0,0,0,6.38,19.7a13.765,13.765,0,0,0,.729,4.493A13.974,13.974,0,0,0,9.572,28.449ZM19.7,20.961a5.234,5.234,0,0,1-3.882-1.576,5.334,5.334,0,0,1-1.557-3.9A5.383,5.383,0,0,1,19.7,10.045a5.234,5.234,0,0,1,3.882,1.576,5.334,5.334,0,0,1,1.557,3.9A5.383,5.383,0,0,1,19.7,20.961Zm0,14.739a15.421,15.421,0,0,1-6.187-1.261,16.261,16.261,0,0,1-8.552-8.532A15.378,15.378,0,0,1,3.7,19.7a15.378,15.378,0,0,1,1.261-6.207,16.315,16.315,0,0,1,8.532-8.532A15.378,15.378,0,0,1,19.7,3.7a15.378,15.378,0,0,1,6.207,1.261,16.315,16.315,0,0,1,8.532,8.532,15.857,15.857,0,0,1,0,12.394,16.261,16.261,0,0,1-8.532,8.552A15.378,15.378,0,0,1,19.7,35.7Zm0-2.68a14.349,14.349,0,0,0,4.158-.611A12.732,12.732,0,0,0,27.9,30.262a16.987,16.987,0,0,0-4.039-2.148,12.21,12.21,0,0,0-4.158-.729,12.045,12.045,0,0,0-4.138.729A17.885,17.885,0,0,0,11.5,30.262a12.732,12.732,0,0,0,4.039,2.148A14.349,14.349,0,0,0,19.7,33.02Zm0-14.542a2.947,2.947,0,0,0,2.148-.828,2.894,2.894,0,0,0,.847-2.167,2.845,2.845,0,0,0-.847-2.128,3.2,3.2,0,0,0-4.3,0,2.845,2.845,0,0,0-.847,2.128,2.894,2.894,0,0,0,.847,2.167A2.947,2.947,0,0,0,19.7,18.478Zm0-3Zm0,14.739Z" transform="translate(-3.7 -3.7)" fill="#fbb900"/>
</svg>
