<svg xmlns="http://www.w3.org/2000/svg" width="32" height="32" viewBox="0 0 32 32">
  <path id="favorite_FILL0_wght400_GRAD0_opsz48" d="M20,37.3l-1.64-1.615A149.028,149.028,0,0,1,7.92,24.334,15.54,15.54,0,0,1,4,14.512,9.474,9.474,0,0,1,6.406,7.957,7.923,7.923,0,0,1,12.4,5.3a8.487,8.487,0,0,1,4.04,1.07A9.846,9.846,0,0,1,20,9.884a12,12,0,0,1,3.64-3.513,8,8,0,0,1,9.953,1.586A9.474,9.474,0,0,1,36,14.512a15.54,15.54,0,0,1-3.92,9.822,149.028,149.028,0,0,1-10.439,11.35ZM20,20.885Zm0,12.965q6.079-6.112,9.839-10.608a13.773,13.773,0,0,0,3.76-8.731,6.676,6.676,0,0,0-1.686-4.721A5.569,5.569,0,0,0,27.6,7.92a6.059,6.059,0,0,0-3.76,1.353,9.747,9.747,0,0,0-2.88,3.885H19A9.358,9.358,0,0,0,16.14,9.273,6.09,6.09,0,0,0,12.4,7.92,5.559,5.559,0,0,0,8.08,9.774,6.8,6.8,0,0,0,6.4,14.512a13.773,13.773,0,0,0,3.76,8.731q3.76,4.5,9.839,10.608Z" transform="translate(-3.999 -5.299)" fill="#fbb900"/>
</svg>
