<svg xmlns="http://www.w3.org/2000/svg" width="32" height="32" viewBox="0 0 32 32">
  <path id="circle_notifications_FILL0_wght400_GRAD0_opsz48_1_" data-name="circle_notifications_FILL0_wght400_GRAD0_opsz48 (1)" d="M20,30.56a2.125,2.125,0,0,0,1.58-.68,2.222,2.222,0,0,0,.66-1.6H17.72A2.323,2.323,0,0,0,20,30.56Zm-7.76-4.68H27.72v-2.4h-1.6v-4.6a8.16,8.16,0,0,0-1.26-4.44A5.193,5.193,0,0,0,21.32,12V10.8A1.3,1.3,0,0,0,20,9.48a1.345,1.345,0,0,0-.96.38,1.245,1.245,0,0,0-.4.94V12a5.26,5.26,0,0,0-3.54,2.36,7.633,7.633,0,0,0-1.26,4.28v4.84h-1.6ZM20,36a16.228,16.228,0,0,1-6.32-1.22,15.486,15.486,0,0,1-8.46-8.46A16.228,16.228,0,0,1,4,20a16.124,16.124,0,0,1,1.22-6.28A15.616,15.616,0,0,1,8.6,8.64,15.951,15.951,0,0,1,20,4,15.872,15.872,0,0,1,36,20a15.951,15.951,0,0,1-4.64,11.4,15.616,15.616,0,0,1-5.08,3.38A16.124,16.124,0,0,1,20,36Zm0-2.4A13.325,13.325,0,0,0,33.6,20,13.325,13.325,0,0,0,20,6.4,13.325,13.325,0,0,0,6.4,20,13.325,13.325,0,0,0,20,33.6ZM16.24,23.48V18.4a3.933,3.933,0,0,1,1.06-2.78A3.525,3.525,0,0,1,20,14.48a3.463,3.463,0,0,1,2.68,1.14,3.975,3.975,0,0,1,1.04,2.78v5.08ZM20,20Z" transform="translate(-4 -4)" fill="#fbb900"/>
</svg>
