<svg xmlns="http://www.w3.org/2000/svg" width="35" height="35" viewBox="0 0 35 35">
  <path id="account_circle_FILL0_wght500_GRAD0_opsz48" d="M10.122,30.769A26.086,26.086,0,0,1,15.489,27.9,15.866,15.866,0,0,1,21.2,26.89,16.215,16.215,0,0,1,26.954,27.9a24.7,24.7,0,0,1,5.366,2.866,14.9,14.9,0,0,0,2.672-4.655,15.437,15.437,0,0,0,.776-4.914A14.285,14.285,0,0,0,21.2,6.631,14.285,14.285,0,0,0,6.631,21.2a15.056,15.056,0,0,0,.8,4.914A15.284,15.284,0,0,0,10.122,30.769ZM21.2,22.579a5.725,5.725,0,0,1-4.246-1.724,5.834,5.834,0,0,1-1.7-4.267A5.888,5.888,0,0,1,21.2,10.64a5.725,5.725,0,0,1,4.246,1.724,5.834,5.834,0,0,1,1.7,4.267A5.888,5.888,0,0,1,21.2,22.579Zm0,16.121a16.867,16.867,0,0,1-6.767-1.379,17.785,17.785,0,0,1-9.353-9.332A16.82,16.82,0,0,1,3.7,21.2a16.82,16.82,0,0,1,1.379-6.789,17.845,17.845,0,0,1,9.332-9.332A16.82,16.82,0,0,1,21.2,3.7a16.82,16.82,0,0,1,6.789,1.379,17.845,17.845,0,0,1,9.332,9.332,17.343,17.343,0,0,1,0,13.556,17.785,17.785,0,0,1-9.332,9.353A16.82,16.82,0,0,1,21.2,38.7Zm0-2.931a15.694,15.694,0,0,0,4.547-.668,13.926,13.926,0,0,0,4.418-2.349A18.58,18.58,0,0,0,25.747,30.4a13.355,13.355,0,0,0-4.547-.8,13.174,13.174,0,0,0-4.526.8,19.561,19.561,0,0,0-4.44,2.349A13.926,13.926,0,0,0,16.653,35.1,15.694,15.694,0,0,0,21.2,35.769Zm0-15.905a3.224,3.224,0,0,0,2.349-.905,3.165,3.165,0,0,0,.927-2.371,3.112,3.112,0,0,0-.927-2.328,3.224,3.224,0,0,0-2.349-.905,3.224,3.224,0,0,0-2.349.905,3.112,3.112,0,0,0-.927,2.328,3.165,3.165,0,0,0,.927,2.371A3.224,3.224,0,0,0,21.2,19.864Zm0-3.276Zm0,16.121Z" transform="translate(-3.7 -3.7)" fill="#fbb900"/>
</svg>
