<svg xmlns="http://www.w3.org/2000/svg" width="12" height="10.117" viewBox="0 0 12 10.117">
  <path id="how_to_reg_FILL0_wght400_GRAD200_opsz40" d="M2.5,15.684V13.958a1.9,1.9,0,0,1,.264-.977,1.745,1.745,0,0,1,.763-.692,9.965,9.965,0,0,1,2.026-.721,8.25,8.25,0,0,1,1.8-.207,7.931,7.931,0,0,1,.877.05,8.484,8.484,0,0,1,.949.164L8.15,12.6l-.392-.028q-.192-.014-.421-.014a6.956,6.956,0,0,0-1.47.157,9.627,9.627,0,0,0-1.812.642.517.517,0,0,0-.278.25.8.8,0,0,0-.078.349v.528H7.979l1.27,1.2Zm8.133.057L8.45,13.558l.842-.842,1.341,1.341,3.011-3.011.856.842Zm-3.3-5.322a2.306,2.306,0,0,1-1.712-.678,2.343,2.343,0,0,1-.671-1.719,2.318,2.318,0,0,1,2.383-2.4A2.354,2.354,0,0,1,9.064,6.3a2.317,2.317,0,0,1,.685,1.719,2.317,2.317,0,0,1-.685,1.719A2.354,2.354,0,0,1,7.337,10.419Zm.642,4.067ZM7.351,9.221a1.211,1.211,0,0,0,.856-2.055,1.179,1.179,0,0,0-.87-.342,1.138,1.138,0,0,0-.849.342,1.261,1.261,0,0,0,0,1.712A1.155,1.155,0,0,0,7.351,9.221Zm0-1.2Z" transform="translate(-2.5 -5.625)" fill="#fff"/>
</svg>
