<svg id="instagram" xmlns="http://www.w3.org/2000/svg" width="40.199" height="40.198" viewBox="0 0 40.199 40.198">
  <path id="Path_1132" data-name="Path 1132" d="M90.809,70.423a20.1,20.1,0,1,0,20.1,20.1A20.1,20.1,0,0,0,90.809,70.423ZM103.387,95.74a9.278,9.278,0,0,1-.588,3.072,6.468,6.468,0,0,1-3.7,3.7,9.288,9.288,0,0,1-3.072.588c-1.35.062-1.781.076-5.218.076s-3.868-.014-5.218-.076a9.3,9.3,0,0,1-3.072-.588,6.471,6.471,0,0,1-3.7-3.7,9.285,9.285,0,0,1-.588-3.072c-.062-1.35-.076-1.781-.076-5.217s.014-3.868.076-5.218a9.291,9.291,0,0,1,.588-3.072,6.471,6.471,0,0,1,3.7-3.7,9.278,9.278,0,0,1,3.072-.588c1.35-.062,1.781-.076,5.218-.076s3.868.014,5.218.076a9.282,9.282,0,0,1,3.072.588,6.468,6.468,0,0,1,3.7,3.7,9.27,9.27,0,0,1,.588,3.072c.062,1.35.077,1.781.077,5.218S103.45,94.39,103.387,95.74Z" transform="translate(-70.709 -70.423)" fill="#6c757d"/>
  <g id="Group_2141" data-name="Group 2141" transform="translate(9.725 9.724)">
    <ellipse id="Ellipse_131" data-name="Ellipse 131" cx="4.218" cy="4.218" rx="4.218" ry="4.218" transform="translate(6.157 6.157)" fill="#6c757d"/>
    <path id="Path_1133" data-name="Path 1133" d="M125.672,109.97a7,7,0,0,0-.436-2.35,4.194,4.194,0,0,0-2.4-2.4,7.011,7.011,0,0,0-2.35-.436c-1.334-.06-1.735-.073-5.113-.073s-3.78.013-5.114.073a7.012,7.012,0,0,0-2.35.436,4.194,4.194,0,0,0-2.4,2.4,7.009,7.009,0,0,0-.435,2.35c-.061,1.334-.074,1.735-.074,5.114s.013,3.779.074,5.114a7.008,7.008,0,0,0,.435,2.35,4.191,4.191,0,0,0,2.4,2.4,7,7,0,0,0,2.35.436c1.334.061,1.734.074,5.114.074s3.779-.013,5.113-.074a7,7,0,0,0,2.35-.436,4.191,4.191,0,0,0,2.4-2.4,7.006,7.006,0,0,0,.436-2.35c.06-1.335.073-1.735.073-5.114S125.733,111.3,125.672,109.97Zm-10.3,11.612a6.5,6.5,0,1,1,6.5-6.5A6.5,6.5,0,0,1,115.371,121.582Zm6.755-11.735a1.519,1.519,0,1,1,1.519-1.519A1.519,1.519,0,0,1,122.126,109.847Z" transform="translate(-104.996 -104.709)" fill="#6c757d"/>
  </g>
</svg>
