<svg xmlns="http://www.w3.org/2000/svg" width="40.199" height="40.198" viewBox="0 0 40.199 40.198">
  <path id="tiktok" d="M90.578,70.423a20.1,20.1,0,1,0,20.1,20.1A20.1,20.1,0,0,0,90.578,70.423Zm11.046,17.8a9.862,9.862,0,0,1-2.216-.267,10.627,10.627,0,0,1-3.483-1.5c-.055-.037-.115-.115-.174-.088-.076.035-.036.132-.036.2,0,2.883.01,5.765-.006,8.648a8.246,8.246,0,0,1-7.292,8.194,8.163,8.163,0,0,1-4.693-.83,4.314,4.314,0,0,1-.684-.418l-.2-.18h0a1.947,1.947,0,0,1-.425-.293,8.155,8.155,0,0,1-3.116-5.71,8.242,8.242,0,0,1-.017-1.274,8.185,8.185,0,0,1,5.391-7.152,8.144,8.144,0,0,1,2.178-.462,8.4,8.4,0,0,1,1.618.037c.073.009.116.023.113.11-.006.3-.005.6-.007.9.006.005.044,2.275.044,3.315,0,.037,0,.073,0,.11-.005.1-.058.139-.156.111a3.929,3.929,0,0,0-.87-.134,3.318,3.318,0,0,0-1.33.2,3.693,3.693,0,0,0-.833,6.586c.1.071.21.138.306.219l.07.064a5.065,5.065,0,0,0,.879.289,3.73,3.73,0,0,0,4.514-3.714q0-8.683,0-17.366c0-.27-.038-.236.231-.236h4.1c.136,0,.139,0,.138.141a8.847,8.847,0,0,0,.139,1.093c.577,2.927,3.988,4.717,5.04,4.875a5.539,5.539,0,0,0,.875.076c.123,0,.126,0,.126.12,0,.272.053,3.07.052,4.095C101.893,88.209,101.861,88.221,101.624,88.221Z" transform="translate(-70.479 -70.423)" fill="#6c757d"/>
</svg>
