<svg id="youtube" xmlns="http://www.w3.org/2000/svg" width="40.199" height="40.198" viewBox="0 0 40.199 40.198">
  <path id="Path_1134" data-name="Path 1134" d="M90.457,70.423a20.1,20.1,0,1,0,20.1,20.1A20.1,20.1,0,0,0,90.457,70.423ZM103.3,96.972a3.355,3.355,0,0,1-2.369,2.369c-2.09.56-10.47.56-10.47.56s-8.38,0-10.47-.56a3.356,3.356,0,0,1-2.369-2.369,37.416,37.416,0,0,1,0-12.9A3.355,3.355,0,0,1,79.986,81.7c2.09-.56,10.47-.56,10.47-.56s8.38,0,10.47.56a3.355,3.355,0,0,1,2.369,2.369,37.415,37.415,0,0,1,0,12.9Z" transform="translate(-70.357 -70.423)" fill="#6c757d"/>
  <path id="Path_1135" data-name="Path 1135" d="M131.774,135.156l6.962-4.02-6.962-4.02Z" transform="translate(-114.355 -111.037)" fill="#6c757d"/>
</svg>
