<svg xmlns="http://www.w3.org/2000/svg" width="16.372" height="15" viewBox="0 0 16.372 15">
  <path id="favorite_FILL0_wght400_GRAD0_opsz48" d="M12.185,20.3l-.839-.757a72.6,72.6,0,0,1-5.341-5.32A6.966,6.966,0,0,1,4,9.618,4.229,4.229,0,0,1,8.3,5.3a4.655,4.655,0,0,1,2.067.5,4.858,4.858,0,0,1,1.821,1.647A5.935,5.935,0,0,1,14.047,5.8a4.323,4.323,0,0,1,2.026-.5,4.229,4.229,0,0,1,4.3,4.318,6.966,6.966,0,0,1-2.005,4.6,72.6,72.6,0,0,1-5.341,5.32ZM12.185,12.605Zm0,6.078q3.11-2.865,5.034-4.973a6.207,6.207,0,0,0,1.924-4.093,2.976,2.976,0,0,0-3.069-3.09,3.279,3.279,0,0,0-1.924.634,4.623,4.623,0,0,0-1.473,1.821h-1a4.435,4.435,0,0,0-1.463-1.821A3.3,3.3,0,0,0,8.3,6.528a2.973,2.973,0,0,0-2.21.869,3.029,3.029,0,0,0-.859,2.221A6.207,6.207,0,0,0,7.151,13.71Q9.075,15.818,12.185,18.683Z" transform="translate(-3.999 -5.299)" fill="#fff"/>
</svg>
