<svg xmlns="http://www.w3.org/2000/svg" width="13.519" height="15" viewBox="0 0 13.519 15">
  <path id="share_FILL0_wght400_GRAD0_opsz48" d="M11.381,0a2.249,2.249,0,0,0-.425.039A1.995,1.995,0,0,0,10.2.353a2.367,2.367,0,0,0-.6.6,1.995,1.995,0,0,0-.314.755,2.249,2.249,0,0,0-.039.425q0,.033,0,.069t.005.074q0,.039.009.08t.012.086q.007.045.016.087t.019.084q.011.041.023.08t.026.077l-5.681,3.3a2.02,2.02,0,0,0-.149-.152,2.071,2.071,0,0,0-.165-.137q-.087-.064-.182-.121t-.2-.106a2.137,2.137,0,0,0-.207-.086,1.97,1.97,0,0,0-.21-.062,1.871,1.871,0,0,0-.427-.049,2.249,2.249,0,0,0-.425.039,1.995,1.995,0,0,0-.755.314,2.367,2.367,0,0,0-.6.6,1.995,1.995,0,0,0-.314.755A2.249,2.249,0,0,0,0,7.5a2.321,2.321,0,0,0,.039.432,2.019,2.019,0,0,0,.118.4,1.983,1.983,0,0,0,.2.362,2.21,2.21,0,0,0,.275.327,2.285,2.285,0,0,0,.33.271,2.011,2.011,0,0,0,.755.309,2.282,2.282,0,0,0,.425.039q.108,0,.213-.011a2.057,2.057,0,0,0,.412-.084,2.11,2.11,0,0,0,.2-.074q.1-.042.192-.094t.183-.112q.089-.061.173-.131t.164-.15l5.681,3.263q-.014.033-.026.068t-.023.073q-.011.037-.019.077t-.016.082q-.007.042-.012.083t-.009.081q0,.04-.005.079t0,.076a2.321,2.321,0,0,0,.039.432,2.019,2.019,0,0,0,.118.4,1.983,1.983,0,0,0,.2.362,2.21,2.21,0,0,0,.275.327,2.285,2.285,0,0,0,.33.271,2.011,2.011,0,0,0,.755.309,2.282,2.282,0,0,0,.425.039,2.356,2.356,0,0,0,.432-.039,2.042,2.042,0,0,0,.4-.116,1.993,1.993,0,0,0,.362-.193,2.265,2.265,0,0,0,.6-.6,1.993,1.993,0,0,0,.193-.362,2.042,2.042,0,0,0,.116-.4,2.356,2.356,0,0,0,.039-.432,2.282,2.282,0,0,0-.039-.425,2.011,2.011,0,0,0-.309-.755,2.285,2.285,0,0,0-.271-.33,2.21,2.21,0,0,0-.327-.275,1.983,1.983,0,0,0-.362-.2,2.019,2.019,0,0,0-.4-.118,2.321,2.321,0,0,0-.432-.039q-.108,0-.214.009t-.21.026q-.1.018-.207.044t-.2.062a1.676,1.676,0,0,0-.194.081,1.581,1.581,0,0,0-.342.23,1.659,1.659,0,0,0-.148.148L4.181,8.175q.009-.037.018-.078t.017-.084q.008-.043.016-.09t.015-.1q.007-.049.012-.094t.009-.086q0-.041.005-.078t0-.07q0-.033,0-.067t-.005-.069q0-.035-.009-.071t-.012-.074q-.007-.038-.015-.075l-.016-.075L4.2,6.994l-.018-.075L9.862,3.694q.07.066.146.125t.158.112q.082.053.17.1t.182.086a1.819,1.819,0,0,0,.195.07,2.032,2.032,0,0,0,.209.05q.108.02.223.03t.237.01a2.356,2.356,0,0,0,.432-.039,2.042,2.042,0,0,0,.4-.116,1.993,1.993,0,0,0,.362-.193,2.265,2.265,0,0,0,.6-.6,1.993,1.993,0,0,0,.193-.362,2.042,2.042,0,0,0,.116-.4,2.356,2.356,0,0,0,.039-.432,2.282,2.282,0,0,0-.039-.425,2.011,2.011,0,0,0-.309-.755A2.285,2.285,0,0,0,12.9.628a2.21,2.21,0,0,0-.327-.275,1.983,1.983,0,0,0-.362-.2,2.019,2.019,0,0,0-.4-.118A2.321,2.321,0,0,0,11.381,0Zm0,11.85a1.145,1.145,0,0,1,.207.018.978.978,0,0,1,.189.054.938.938,0,0,1,.172.091,1.047,1.047,0,0,1,.281.281.938.938,0,0,1,.091.172.978.978,0,0,1,.054.189,1.187,1.187,0,0,1,0,.414.978.978,0,0,1-.054.189.938.938,0,0,1-.091.172,1.047,1.047,0,0,1-.281.281.938.938,0,0,1-.172.091.978.978,0,0,1-.189.054,1.187,1.187,0,0,1-.414,0,.978.978,0,0,1-.189-.054.938.938,0,0,1-.172-.091,1.047,1.047,0,0,1-.281-.281.938.938,0,0,1-.091-.172.978.978,0,0,1-.054-.189,1.187,1.187,0,0,1,0-.414.978.978,0,0,1,.054-.189.938.938,0,0,1,.091-.172,1.047,1.047,0,0,1,.281-.281.938.938,0,0,1,.172-.091.978.978,0,0,1,.189-.054A1.145,1.145,0,0,1,11.381,11.85ZM2.137,6.487a1.145,1.145,0,0,1,.207.018.978.978,0,0,1,.189.054.938.938,0,0,1,.172.091,1.047,1.047,0,0,1,.281.281.938.938,0,0,1,.091.172.978.978,0,0,1,.054.189,1.187,1.187,0,0,1,0,.414.978.978,0,0,1-.054.189.938.938,0,0,1-.091.172,1.047,1.047,0,0,1-.281.281.938.938,0,0,1-.172.091.978.978,0,0,1-.189.054,1.187,1.187,0,0,1-.414,0,.978.978,0,0,1-.189-.054.938.938,0,0,1-.172-.091,1.047,1.047,0,0,1-.281-.281A.938.938,0,0,1,1.2,7.9a.978.978,0,0,1-.054-.189,1.187,1.187,0,0,1,0-.414A.978.978,0,0,1,1.2,7.1a.938.938,0,0,1,.091-.172,1.047,1.047,0,0,1,.281-.281.938.938,0,0,1,.172-.091.978.978,0,0,1,.189-.054A1.145,1.145,0,0,1,2.137,6.487Zm9.244-5.363a1.145,1.145,0,0,1,.207.018.978.978,0,0,1,.189.054.938.938,0,0,1,.172.091,1.047,1.047,0,0,1,.281.281.938.938,0,0,1,.091.172.978.978,0,0,1,.054.189,1.187,1.187,0,0,1,0,.414.978.978,0,0,1-.054.189.938.938,0,0,1-.091.172,1.047,1.047,0,0,1-.281.281.938.938,0,0,1-.172.091.978.978,0,0,1-.189.054,1.187,1.187,0,0,1-.414,0,.978.978,0,0,1-.189-.054.938.938,0,0,1-.172-.091,1.047,1.047,0,0,1-.281-.281.938.938,0,0,1-.091-.172.978.978,0,0,1-.054-.189,1.187,1.187,0,0,1,0-.414.978.978,0,0,1,.054-.189.938.938,0,0,1,.091-.172,1.047,1.047,0,0,1,.281-.281.938.938,0,0,1,.172-.091.978.978,0,0,1,.189-.054A1.145,1.145,0,0,1,11.381,1.125Zm0,11.738ZM2.137,7.5Zm9.244-5.363Z" fill="#fff"/>
</svg>
